HIERARCHY
ROOT Hips
{
	OFFSET 0.00000 0.00000 0.00000
	CHANNELS 6 Xposition Yposition Zposition Zrotation Yrotation Xrotation 
	JOINT LHipJoint
	{
		OFFSET 0 0 0
		CHANNELS 3 Zrotation Yrotation Xrotation
		JOINT LeftHip
		{
			OFFSET 1.62067 -1.77917 0.70989
			CHANNELS 3 Zrotation Yrotation Xrotation
			JOINT LeftKnee
			{
				OFFSET 2.34532 -6.44371 0.00000
				CHANNELS 3 Zrotation Yrotation Xrotation
				JOINT LeftAnkle
				{
					OFFSET 2.74224 -7.53425 0.00000
					CHANNELS 3 Zrotation Yrotation Xrotation
					JOINT LeftToe
					{
						OFFSET 0.17032 -0.46794 2.08086
						CHANNELS 3 Zrotation Yrotation Xrotation
						End Site
						{
							OFFSET 0.00000 -0.00000 1.07476
						}
					}
				}
			}
		}
	}
	JOINT RHipJoint
	{
		OFFSET 0 0 0
		CHANNELS 3 Zrotation Yrotation Xrotation
		JOINT RightHip
		{
			OFFSET -1.55811 -1.77917 0.70989
			CHANNELS 3 Zrotation Yrotation Xrotation
			JOINT RightKnee
			{
				OFFSET -2.33243 -6.40830 0.00000
				CHANNELS 3 Zrotation Yrotation Xrotation
				JOINT RightAnkle
				{
					OFFSET -2.78798 -7.65993 0.00000
					CHANNELS 3 Zrotation Yrotation Xrotation
					JOINT RightToe
					{
						OFFSET -0.22707 -0.62388 2.04059
						CHANNELS 3 Zrotation Yrotation Xrotation
						End Site
						{
							OFFSET -0.00000 -0.00000 1.07030
						}
					}
				}
			}
		}
	}
	JOINT lowerback
	{
		OFFSET 0 0 0
		CHANNELS 3 Zrotation Yrotation Xrotation
		JOINT Chest
		{
			OFFSET 0.02203 1.91565 0.07161
			CHANNELS 3 Zrotation Yrotation Xrotation
			JOINT Chest2
			{
				OFFSET 0.01740 1.90525 0.11636
				CHANNELS 3 Zrotation Yrotation Xrotation
				JOINT lowerneck
				{
					OFFSET 0 0 0
					CHANNELS 3 Zrotation Yrotation Xrotation
					JOINT Neck
					{
						OFFSET -0.10841 1.83566 0.05067
						CHANNELS 3 Zrotation Yrotation Xrotation
						JOINT Head
						{
							OFFSET 0.06601 1.74760 -0.50505
							CHANNELS 3 Zrotation Yrotation Xrotation
							End Site
							{
								OFFSET 0.03102 1.85215 -0.17697
							}
						}
					}
				}
				JOINT LeftCollar
				{
					OFFSET 0 0 0
					CHANNELS 3 Zrotation Yrotation Xrotation
					JOINT LeftShoulder
					{
						OFFSET 2.87059 1.35470 0.16111
CHANNELS 3 Zrotation Xrotation Yrotation
						JOINT LeftElbow
						{
OFFSET 0 -5.435920 0.000000
CHANNELS 3 Zrotation Xrotation Yrotation
							JOINT LeftWrist
							{
OFFSET 0 -3.254600 0.000000
CHANNELS 3 Zrotation Xrotation Yrotation
								JOINT lhand
								{
									OFFSET 0 0 0
CHANNELS 3 Zrotation Xrotation Yrotation
									JOINT LFingers
									{
OFFSET 0 -0.498240 0.000000
CHANNELS 3 Zrotation Xrotation Yrotation
										End Site
										{
OFFSET 0 -0.401700 0.000000
										}
									}
								}
								JOINT LThumb
								{
OFFSET 0 0.000000 0.000000
CHANNELS 3 Zrotation Xrotation Yrotation
									End Site
									{
OFFSET 0 -0.407830 0.407830
									}
								}
							}
						}
					}
				}
				JOINT RightCollar
				{
					OFFSET 0 0 0
					CHANNELS 3 Zrotation Yrotation Xrotation
					JOINT RightShoulder
					{
						OFFSET -2.86643 1.23488 0.45957
CHANNELS 3 Zrotation Xrotation Yrotation
						JOINT RightElbow
						{
OFFSET 0 -5.338300 0.000000
CHANNELS 3 Zrotation Xrotation Yrotation
							JOINT RightWrist
							{
OFFSET 0 -3.231480 0.000000
CHANNELS 3 Zrotation Xrotation Yrotation
								JOINT rhand
								{
									OFFSET 0 0 0
CHANNELS 3 Zrotation Xrotation Yrotation
									JOINT RFingers
									{
OFFSET 0 -0.463640 0.000000
CHANNELS 3 Zrotation Xrotation Yrotation
										End Site
										{
OFFSET 0 -0.373800 0.000000
										}
									}
								}
								JOINT RThumb
								{
OFFSET 0 0.000000 0.000000
CHANNELS 3 Zrotation Xrotation Yrotation
									End Site
									{
OFFSET 0 -0.379510 0.379510
									}
								}
							}
						}
					}
				}
			}
		}
	}
}
MOTION
Frames: 7
Frame Time: 0.008333333333333333
4.516800 17.686200 1.749400 -4.838900 1.244700 23.382700 0.000000 0.000000 0.000000 -23.288000 -9.380800 -20.614400 0.574700 4.854800 13.495000 0.490700 4.136300 -15.395800 0.246200 3.193200 8.817100 0.000000 0.000000 0.000000 -2.958900 8.180500 -4.870900 0.000000 -0.000000 0.000000 -0.028400 -20.489500 -29.152400 -6.449000 -14.849800 46.758100 5.064700 -0.135200 -9.050400 5.486100 0.066800 -14.050500 3.103900 -0.122700 -10.055100 13.210700 19.913000 -3.397100 2.604900 25.538100 7.068800 0.353700 13.037300 4.339000 -0.000000 0.000000 0.000000 129.113900 -9.370300 36.258800 15.812000 -25.265100 3.565300 32.334600 -56.254100 12.367800 0.000000 0.000000 0.000000 -7.125000 0.000000 0.000000 3.492200 15.450000 2.440300 -0.000000 0.000000 0.000000 -102.207300 17.790500 -24.974800 -143.028000 -46.170000 -103.780200 -8.013900 -53.119100 46.713500 0.000000 0.000000 0.000000 7.125000 0.000000 -0.000000 50.153100 71.340800 -33.945900
4.506563 17.687574 1.752089 -4.780802 1.152987 23.361657 0.000000 0.000000 0.000000 -23.283591 -9.537138 -20.409391 0.557016 4.780584 13.283678 0.473374 4.448932 -15.392602 0.229879 3.085842 8.517779 0.000000 0.000000 0.000000 -3.030418 8.260725 -4.893588 0.000000 0.000000 0.000000 -0.724119 -17.961988 -30.826818 -6.929644 -15.271592 48.606232 4.843765 -0.163885 -9.056683 5.485264 0.033857 -14.072854 3.226379 -0.117206 -10.073003 13.423863 19.875541 -3.348797 2.402204 25.492442 7.403293 0.283615 13.022621 4.042020 0.000000 0.000000 0.000000 129.176019 -9.621974 36.454507 15.702480 -25.115532 3.518704 32.321895 -55.804393 12.524995 0.000000 0.000000 0.000000 -7.125000 0.000000 0.000000 3.465480 15.269327 2.435006 0.000000 0.000000 0.000000 -102.024627 17.498962 -25.062346 -142.967409 -46.210229 -103.736408 -8.145350 -53.173894 46.933012 0.000000 0.000000 0.000000 7.125000 0.000000 0.000000 50.575025 71.516479 -34.448925
4.509358 17.687858 1.757154 -4.693153 1.323915 23.244039 0.000000 0.000000 0.000000 -23.388898 -9.476743 -20.172468 0.543099 4.721454 13.115819 0.474554 4.307356 -15.308018 0.238621 3.143718 8.679137 0.000000 0.000000 0.000000 -3.031011 8.056088 -4.711376 0.000000 0.000000 0.000000 -0.536135 -18.730873 -30.458913 -6.818369 -15.176438 48.182964 4.847500 -0.228289 -9.114729 5.478371 -0.062607 -14.003012 3.211380 -0.165553 -9.954296 13.427623 19.861767 -3.223278 2.233189 25.513591 7.109603 0.210923 13.017371 4.046540 0.000000 0.000000 0.000000 129.127360 -9.519549 36.394041 15.743099 -25.171032 3.536018 32.231124 -55.800270 12.519837 0.000000 0.000000 0.000000 -7.125000 0.000000 0.000000 3.404261 15.288776 2.390402 0.000000 0.000000 0.000000 -102.160196 17.666056 -25.014968 -142.986613 -46.197465 -103.750324 -8.762943 -52.774170 46.968381 0.000000 0.000000 0.000000 7.125000 0.000000 0.000000 50.120463 71.754445 -34.329673
4.512921 17.683805 1.766521 -4.423417 2.035524 22.741746 0.000000 0.000000 0.000000 -23.633036 -9.355653 -19.470053 0.529535 4.663197 12.950350 0.497754 3.682568 -15.185308 0.230988 3.093463 8.539180 0.000000 0.000000 0.000000 -2.905296 7.252985 -3.951454 0.000000 0.000000 0.000000 -0.384708 -19.284400 -30.096808 -6.701475 -15.075034 47.735647 4.944777 -0.495242 -8.805620 5.392417 -0.402573 -13.961940 3.066654 -0.350266 -10.077404 13.732018 19.772252 -3.097649 1.972486 25.413820 7.223168 0.104185 12.969155 4.036591 0.000000 0.000000 0.000000 129.155792 -9.680883 36.425157 15.677306 -25.081163 3.508030 32.081623 -55.506195 12.703902 0.000000 0.000000 0.000000 -7.125000 0.000000 0.000000 3.281461 15.097706 2.317288 0.000000 0.000000 0.000000 -102.213448 17.738211 -24.908232 -143.016595 -46.177561 -103.771950 -8.915030 -52.838603 47.102575 0.000000 0.000000 0.000000 7.125000 0.000000 0.000000 50.324679 71.887124 -34.620490
4.508123 17.685336 1.767600 -4.447405 2.128051 22.601829 0.000000 0.000000 0.000000 -23.611335 -9.185504 -19.281302 0.515940 4.603812 12.781811 0.494137 3.541354 -15.048067 0.225826 3.058942 8.442880 0.000000 0.000000 0.000000 -2.784560 7.169757 -3.746472 0.000000 0.000000 0.000000 -0.333603 -19.354579 -29.832947 -6.676234 -15.052228 47.637358 4.912484 -0.506554 -8.723190 5.368246 -0.414291 -13.912070 3.056985 -0.353861 -10.064679 13.515176 19.839319 -3.075958 2.293960 25.500965 6.798563 0.176108 13.006565 4.273490 0.000000 0.000000 0.000000 129.261578 -9.922892 37.235080 15.550997 -24.907971 3.454656 31.690862 -54.704066 12.729362 0.000000 0.000000 0.000000 -7.125000 0.000000 0.000000 3.012658 15.125961 2.125108 0.000000 0.000000 0.000000 -102.133927 17.910897 -24.909377 -143.017010 -46.177269 -103.772225 -8.642585 -52.936078 47.203223 0.000000 0.000000 0.000000 7.125000 0.000000 0.000000 50.816570 71.849483 -34.969570
4.509147 17.682932 1.758520 -4.285228 2.052028 22.553324 0.000000 0.000000 0.000000 -23.803975 -9.247346 -19.221348 0.514935 4.599478 12.769576 0.482567 3.695687 -14.997622 0.238721 3.144083 8.680086 0.000000 0.000000 0.000000 -2.993627 7.191122 -3.739433 0.000000 0.000000 0.000000 -0.137259 -20.070318 -29.369557 -6.527488 -14.920745 47.063774 4.755123 -0.523835 -8.592960 5.290322 -0.424895 -13.970316 3.065651 -0.349195 -10.203782 13.720321 19.792407 -2.885309 2.147509 25.465048 7.020279 0.113274 12.996052 4.148547 0.000000 0.000000 0.000000 129.320367 -10.105072 37.591956 15.467191 -24.792897 3.419453 31.519513 -54.041522 12.682080 0.000000 0.000000 0.000000 -7.125000 0.000000 0.000000 2.901251 15.205368 2.041289 0.000000 0.000000 0.000000 -102.084349 17.869614 -24.802987 -142.981092 -46.201105 -103.746369 -8.420776 -52.927134 47.346226 0.000000 0.000000 0.000000 7.125000 0.000000 0.000000 51.371980 71.853660 -35.411584
4.514839 17.682721 1.768507 -4.443131 2.195335 22.516653 0.000000 0.000000 0.000000 -23.651755 -9.177206 -19.104530 0.506049 4.560012 12.657823 0.488644 3.597022 -15.012590 0.231476 3.096367 8.547122 0.000000 0.000000 0.000000 -2.770172 7.104731 -3.651002 0.000000 0.000000 0.000000 -0.588691 -18.386856 -30.409647 -6.843945 -15.198285 48.280176 4.987936 -0.539047 -8.743785 5.329159 -0.457752 -14.004443 2.977572 -0.386101 -10.163180 14.002716 19.619150 -3.117907 1.945102 25.184424 7.712198 0.089752 12.878893 4.220714 0.000000 0.000000 0.000000 129.288779 -10.225305 37.639362 15.444078 -24.761128 3.409777 30.986868 -53.694506 12.774075 0.000000 0.000000 0.000000 -7.125000 0.000000 0.000000 2.528120 15.176220 1.779938 0.000000 0.000000 0.000000 -102.139822 17.816289 -24.569273 -142.985964 -46.197887 -103.749802 -8.137605 -52.773667 47.395756 0.000000 0.000000 0.000000 7.125000 0.000000 0.000000 51.740224 71.781682 -35.630649
